#!OML:ASF H:\Dans Jumps\Project 1\Capture day 1\Session 1\subject.ASF
:FULLY-SPECIFIED
:DEGREES
325
root 0.430491 20.9483 -0.780492 8.74839 2.03303 -0.922656
lowerback 10.3144 0.78661 -1.66692
upperback 6.11082 0.913426 1.64218
thorax 0.522805 0.388723 2.54887
lowerneck -13.4631 -0.914792 -1.11402
upperneck 25.4147 -1.24227 0.91633
head 10.3535 -0.560415 0.357669
rclavicle -4.07509e-015 -2.54444e-014
rhumerus -22.7159 -24.8499 -76.8865
rradius 20.9008
rwrist 42.7852
rhand -21.9998 -25.2564
rfingers 7.12502
rthumb 4.40893 -55.1905
lclavicle -4.07509e-015 -2.54444e-014
lhumerus -20.2696 17.9283 79.5766
lradius 9.0591
lwrist -4.03417
lhand -24.3937 -10.7122
lfingers 7.12502
lthumb 2.09716 19.2573
rfemur -33.4236 -5.88753 20.9142
rtibia 24.825
rfoot 17.6293 -4.04674
rtoes 16.0161
lfemur -32.4328 8.94045 -19.801
ltibia 25.3204
lfoot 17.2085 -5.71668
ltoes 3.15378
326
root 0.425962 20.7807 -0.545306 8.65235 2.16191 -0.947113
lowerback 10.0135 0.755158 -1.62156
upperback 6.10465 0.879125 1.62349
thorax 0.682723 0.371472 2.51002
lowerneck -13.369 -0.91899 -1.13314
upperneck 25.6591 -1.26535 0.988395
head 10.4254 -0.564073 0.384214
rclavicle 9.93923e-015 7.95139e-016
rhumerus -23.4967 -25.5172 -76.2275
rradius 20.5738
rwrist 43.2793
rhand -22.0193 -25.3308
rfingers 7.12502
rthumb 4.39009 -55.2653
lclavicle 9.93923e-015 7.95139e-016
lhumerus -20.9287 17.9186 79.3609
lradius 8.97939
lwrist -3.67604
lhand -24.2778 -10.5338
lfingers 7.12502
lthumb 2.20903 19.4345
rfemur -33.3527 -5.75247 20.7798
rtibia 23.4839
rfoot 18.1332 -4.4944
rtoes 16.779
lfemur -32.4871 8.8083 -19.7458
ltibia 23.397
lfoot 17.7557 -5.43494
ltoes 3.30281
327
root 0.421985 20.5988 -0.308082 8.50594 2.28955 -0.962485
lowerback 9.70941 0.72062 -1.58554
upperback 6.11009 0.839726 1.60332
thorax 0.856936 0.351243 2.47529
lowerneck -13.2917 -0.916945 -1.1447
upperneck 25.9042 -1.28035 1.05542
head 10.5011 -0.563829 0.408766
rclavicle 1.88845e-014 6.16232e-015
rhumerus -24.2452 -26.096 -75.585
rradius 20.2842
rwrist 43.7
rhand -22.0188 -25.379
rfingers 7.12502
rthumb 4.39063 -55.3135
lclavicle 1.88845e-014 6.16232e-015
lhumerus -21.5862 17.9138 79.139
lradius 8.96083
lwrist -3.27789
lhand -24.1536 -10.3289
lfingers 7.12502
lthumb 2.329 19.6381
rfemur -33.2122 -5.59149 20.6066
rtibia 22.3033
rfoot 18.5599 -4.9081
rtoes 17.5126
lfemur -32.4983 8.59925 -19.656
ltibia 21.6756
lfoot 18.2258 -5.06631
ltoes 3.22726
328
root 0.41813 20.402 -0.0694318 8.28947 2.41124 -0.96745
lowerback 9.42888 0.685161 -1.5676
upperback 6.12916 0.797272 1.58451
thorax 1.03266 0.328871 2.45208
lowerneck -13.2217 -0.911076 -1.15904
upperneck 26.1405 -1.28936 1.12211
head 10.5751 -0.561141 0.434519
rclavicle 1.78906e-015 -1.98785e-015
rhumerus -24.9586 -26.5846 -74.9618
rradius 20.0381
rwrist 44.0561
rhand -21.9849 -25.3808
rfingers 7.12502
rthumb 4.42333 -55.3146
lclavicle 1.78906e-015 -1.98785e-015
lhumerus -22.2432 17.9195 78.9188
lradius 8.99717
lwrist -2.88258
lhand -24.032 -10.0996
lfingers 7.12502
lthumb 2.44641 19.8661
rfemur -32.9971 -5.40772 20.4023
rtibia 21.3241
rfoot 18.8808 -5.29713
rtoes 18.1601
lfemur -32.4653 8.37793 -19.5586
ltibia 20.2049
lfoot 18.7092 -4.68163
ltoes 2.9677
329
root 0.414178 20.1901 0.170269 7.98742 2.51675 -0.96512
lowerback 9.19018 0.659711 -1.56154
upperback 6.16333 0.76664 1.56226
thorax 1.20073 0.312098 2.43053
lowerneck -13.1747 -0.905264 -1.16409
upperneck 26.3826 -1.30091 1.18904
head 10.6561 -0.558514 0.458495
rclavicle 2.08724e-015 -1.39149e-015
rhumerus -25.6421 -26.9689 -74.3713
rradius 19.8399
rwrist 44.3513
rhand -21.9407 -25.378
rfingers 7.12502
rthumb 4.46607 -55.3109
lclavicle 2.08724e-015 -1.39149e-015
lhumerus -22.8787 17.9091 78.7004
lradius 9.04626
lwrist -2.53566
lhand -23.9238 -9.89354
lfingers 7.12502
lthumb 2.55092 20.0709
rfemur -32.7079 -5.21681 20.1867
rtibia 20.58
rfoot 19.1117 -5.67749
rtoes 18.7044
lfemur -32.3819 8.21508 -19.4808
ltibia 19.0233
lfoot 19.2671 -4.33685
ltoes 2.65259
330
root 0.410037 19.9631 0.409932 7.59449 2.61492 -0.946317
lowerback 9.01287 0.64283 -1.57155
upperback 6.20848 0.745628 1.53379
thorax 1.3462 0.299946 2.41024
lowerneck -13.1425 -0.904039 -1.17034
upperneck 26.6279 -1.32061 1.26257
head 10.7417 -0.558762 0.48409
rclavicle -2.88238e-015 1.98785e-015
rhumerus -26.292 -27.2671 -73.8147
rradius 19.6788
rwrist 44.6347
rhand -21.8962 -25.3727
rfingers 7.12502
rthumb 4.50899 -55.3047
lclavicle -2.88238e-015 1.98785e-015
lhumerus -23.4897 17.8788 78.4876
lradius 9.07902
lwrist -2.28717
lhand -23.8933 -9.80567
lfingers 7.12502
lthumb 2.58042 20.1585
rfemur -32.3513 -5.06732 19.9728
rtibia 20.0907
rfoot 19.3136 -6.04291
rtoes 19.2013
lfemur -32.2465 8.16055 -19.464
ltibia 18.1554
lfoot 19.9144 -4.10281
ltoes 2.36659
331
root 0.405369 19.7212 0.648767 7.1123 2.70157 -0.922969
lowerback 8.906 0.637386 -1.58903
upperback 6.25916 0.73862 1.50086
thorax 1.45819 0.294978 2.38784
lowerneck -13.1265 -0.908606 -1.17803
upperneck 26.881 -1.35049 1.34379
head 10.8341 -0.562654 0.511484
rclavicle 3.47873e-015 -9.93923e-016
rhumerus -26.9075 -27.5009 -73.2915
rradius 19.5388
rwrist 44.9495
rhand -21.8639 -25.3801
rfingers 7.12502
rthumb 4.54023 -55.3115
lclavicle 3.47873e-015 -9.93923e-016
lhumerus -24.0771 17.8245 78.2801
lradius 9.07368
lwrist -2.13995
lhand -23.9466 -9.85269
lfingers 7.12502
lthumb 2.52889 20.1121
rfemur -31.9373 -4.96649 19.7853
rtibia 19.8636
rfoot 19.546 -6.36021
rtoes 19.7056
lfemur -32.051 8.20449 -19.4892
ltibia 17.6102
lfoot 20.6177 -3.99103
ltoes 2.13888
332
root 0.400128 19.4648 0.886562 6.54767 2.77563 -0.90036
lowerback 8.86616 0.643664 -1.60829
upperback 6.30966 0.746399 1.46502
thorax 1.53253 0.297826 2.36173
lowerneck -13.1179 -0.923618 -1.20276
upperneck 27.1418 -1.39635 1.44309
head 10.9319 -0.573131 0.546411
rclavicle 5.96354e-016 -9.14409e-015
rhumerus -27.4914 -27.6747 -72.8
rradius 19.4077
rwrist 45.2974
rhand -21.8473 -25.4005
rfingers 7.12502
rthumb 4.55625 -55.3315
lclavicle 5.96354e-016 -9.14409e-015
lhumerus -24.6374 17.7478 78.0838
lradius 9.02223
lwrist -2.03667
lhand -24.0234 -9.94512
lfingers 7.12502
lthumb 2.45472 20.0205
rfemur -31.4771 -4.91647 19.6334
rtibia 19.8997
rfoot 19.8419 -6.56288
rtoes 20.2313
lfemur -31.7835 8.28656 -19.5206
ltibia 17.3866
lfoot 21.3102 -3.97513
ltoes 1.95157
333
root 0.394326 19.1939 1.12258 5.91703 2.83654 -0.87528
lowerback 8.89549 0.657843 -1.63752
upperback 6.34544 0.763276 1.42723
thorax 1.55309 0.305686 2.33781
lowerneck -13.1172 -0.941013 -1.22703
upperneck 27.4181 -1.44375 1.53347
head 11.0376 -0.585106 0.578047
rclavicle -8.15017e-015 -1.37161e-014
rhumerus -28.0463 -27.799 -72.3378
rradius 19.2715
rwrist 45.6827
rhand -21.8521 -25.4317
rfingers 7.12502
rthumb 4.55162 -55.3628
lclavicle -8.15017e-015 -1.37161e-014
lhumerus -25.1954 17.66 77.8906
lradius 8.92974
lwrist -1.94125
lhand -24.1185 -10.0773
lfingers 7.12502
lthumb 2.3629 19.8894
rfemur -30.996 -4.89177 19.5038
rtibia 20.2012
rfoot 20.2005 -6.58428
rtoes 20.7023
lfemur -31.4682 8.32182 -19.5249
ltibia 17.5142
lfoot 21.9264 -4.03214
ltoes 1.66919
334
root 0.387705 18.9083 1.35735 5.2329 2.87979 -0.859452
lowerback 8.9787 0.678509 -1.67601
upperback 6.36416 0.787428 1.39688
thorax 1.5258 0.317434 2.3256
lowerneck -13.1368 -0.95989 -1.26401
upperneck 27.7128 -1.48922 1.61891
head 11.1551 -0.597834 0.610521
rclavicle 7.45443e-015 1.39149e-015
rhumerus -28.5621 -27.8419 -71.914
rradius 19.1288
rwrist 46.0434
rhand -21.8538 -25.4689
rfingers 7.12502
rthumb 4.54996 -55.4
lclavicle 7.45443e-015 1.39149e-015
lhumerus -25.7425 17.5798 77.7136
lradius 8.79731
lwrist -1.79433
lhand -24.173 -10.1324
lfingers 7.12502
lthumb 2.31023 19.8349
rfemur -30.5355 -4.86574 19.4038
rtibia 20.8219
rfoot 19.981 -6.11038
rtoes 19.6991
lfemur -31.1236 8.26631 -19.4663
ltibia 18.0016
lfoot 22.1873 -4.1304
ltoes 1.49491
335
root 0.380558 18.6055 1.59105 4.51748 2.90442 -0.860257
lowerback 9.11186 0.705929 -1.71466
upperback 6.35101 0.819722 1.37679
thorax 1.43734 0.334033 2.32267
lowerneck -13.1873 -0.980237 -1.31308
upperneck 28.0354 -1.53322 1.70053
head 11.2904 -0.611276 0.644099
rclavicle 7.55382e-015 3.97569e-015
rhumerus -29.0498 -27.744 -71.5462
rradius 18.9993
rwrist 46.2973
rhand -21.8332 -25.5118
rfingers 7.12502
rthumb 4.56981 -55.4425
lclavicle 7.55382e-015 3.97569e-015
lhumerus -26.301 17.5038 77.5492
lradius 8.64331
lwrist -1.58077
lhand -24.1798 -10.1222
lfingers 7.12502
lthumb 2.30374 19.8451
rfemur -30.1382 -4.87323 19.3634
rtibia 21.8283
rfoot 19.2188 -4.8614
rtoes 19.1961
lfemur -30.8122 8.17466 -19.371
ltibia 18.9098
lfoot 21.7291 -4.46214
ltoes 1.25298
336
root 0.373271 18.2882 1.82146 3.78499 2.90904 -0.881244
lowerback 9.29876 0.736108 -1.74914
upperback 6.29924 0.855014 1.37094
thorax 1.27893 0.353156 2.33089
lowerneck -13.2551 -1.00014 -1.37294
upperneck 28.3647 -1.571 1.77094
head 11.4326 -0.624273 0.676459
rclavicle -1.70955e-014 -1.78906e-014
rhumerus -29.5074 -27.4974 -71.2382
rradius 18.8932
rwrist 46.4458
rhand -21.769 -25.5397
rfingers 7.12502
rthumb 4.63182 -55.469
lclavicle -1.70955e-014 -1.78906e-014
lhumerus -26.8896 17.4467 77.3976
lradius 8.49212
lwrist -1.32684
lhand -24.1735 -10.0126
lfingers 7.12502
lthumb 2.3098 19.9546
rfemur -29.8305 -4.90959 19.3763
rtibia 23.2948
rfoot 17.3815 -2.75276
rtoes 18.1879
lfemur -30.6015 8.17078 -19.2973
ltibia 20.308
lfoot 20.3172 -5.19374
ltoes 0.981994
